<svg width="431" height="70" viewBox="0 0 431 70" fill="none" xmlns="http://www.w3.org/2000/svg">
<path d="M95.33 57.78L87.014 41.742H92.684L101 57.78H95.33ZM90.2 54.864C87.104 54.864 84.476 54.09 82.316 52.542C80.192 50.994 78.554 48.744 77.402 45.792C76.286 42.804 75.728 39.168 75.728 34.884C75.728 30.6 76.286 26.964 77.402 23.976C78.554 20.988 80.192 18.72 82.316 17.172C84.476 15.588 87.104 14.796 90.2 14.796C93.296 14.796 95.924 15.588 98.084 17.172C100.244 18.72 101.882 20.988 102.998 23.976C104.114 26.964 104.672 30.6 104.672 34.884C104.672 39.168 104.114 42.804 102.998 45.792C101.882 48.744 100.244 50.994 98.084 52.542C95.924 54.09 93.296 54.864 90.2 54.864ZM90.2 48.06C91.64 48.06 92.846 47.61 93.818 46.71C94.79 45.774 95.528 44.334 96.032 42.39C96.536 40.446 96.788 37.944 96.788 34.884C96.788 31.824 96.536 29.322 96.032 27.378C95.528 25.398 94.79 23.94 93.818 23.004C92.846 22.068 91.64 21.6 90.2 21.6C88.796 21.6 87.59 22.068 86.582 23.004C85.61 23.94 84.872 25.398 84.368 27.378C83.864 29.322 83.612 31.824 83.612 34.884C83.612 37.944 83.864 40.446 84.368 42.39C84.872 44.334 85.61 45.774 86.582 46.71C87.59 47.61 88.796 48.06 90.2 48.06ZM122.579 54.864C118.367 54.864 115.091 53.658 112.751 51.246C110.447 48.798 109.295 45.288 109.295 40.716V15.606H116.963V41.364C116.963 43.524 117.449 45.18 118.421 46.332C119.393 47.484 120.779 48.06 122.579 48.06C124.379 48.06 125.765 47.484 126.737 46.332C127.709 45.18 128.195 43.524 128.195 41.364V15.606H135.863V40.716C135.863 45.288 134.693 48.798 132.353 51.246C130.049 53.658 126.791 54.864 122.579 54.864ZM142.754 54V47.088H151.124V22.572H142.754V15.66H167.162V22.572H158.792V47.088H167.162V54H142.754ZM187.553 54.864C184.457 54.864 181.811 54.072 179.615 52.488C177.419 50.868 175.745 48.564 174.593 45.576C173.441 42.588 172.865 39.024 172.865 34.884C172.865 30.744 173.441 27.18 174.593 24.192C175.745 21.168 177.419 18.846 179.615 17.226C181.811 15.606 184.457 14.796 187.553 14.796C191.297 14.796 194.375 16.038 196.787 18.522C199.199 20.97 200.747 24.462 201.431 28.998L193.547 29.376C193.151 26.856 192.431 24.93 191.387 23.598C190.343 22.266 189.065 21.6 187.553 21.6C186.113 21.6 184.889 22.122 183.881 23.166C182.873 24.174 182.099 25.668 181.559 27.648C181.019 29.628 180.749 32.04 180.749 34.884C180.749 37.692 181.019 40.086 181.559 42.066C182.099 44.01 182.873 45.504 183.881 46.548C184.889 47.556 186.113 48.06 187.553 48.06C189.101 48.06 190.415 47.358 191.495 45.954C192.611 44.514 193.349 42.444 193.709 39.744L201.539 40.122C200.927 44.802 199.397 48.438 196.949 51.03C194.537 53.586 191.405 54.864 187.553 54.864ZM219.932 54.864C216.836 54.864 214.19 54.072 211.994 52.488C209.798 50.868 208.124 48.564 206.972 45.576C205.82 42.588 205.244 39.024 205.244 34.884C205.244 30.744 205.82 27.18 206.972 24.192C208.124 21.168 209.798 18.846 211.994 17.226C214.19 15.606 216.836 14.796 219.932 14.796C223.676 14.796 226.754 16.038 229.166 18.522C231.578 20.97 233.126 24.462 233.81 28.998L225.926 29.376C225.53 26.856 224.81 24.93 223.766 23.598C222.722 22.266 221.444 21.6 219.932 21.6C218.492 21.6 217.268 22.122 216.26 23.166C215.252 24.174 214.478 25.668 213.938 27.648C213.398 29.628 213.128 32.04 213.128 34.884C213.128 37.692 213.398 40.086 213.938 42.066C214.478 44.01 215.252 45.504 216.26 46.548C217.268 47.556 218.492 48.06 219.932 48.06C221.48 48.06 222.794 47.358 223.874 45.954C224.99 44.514 225.728 42.444 226.088 39.744L233.918 40.122C233.306 44.802 231.776 48.438 229.328 51.03C226.916 53.586 223.784 54.864 219.932 54.864ZM252.419 54.864C249.503 54.864 247.019 54.306 244.967 53.19C242.915 52.074 241.313 50.49 240.161 48.438C239.045 46.386 238.379 43.92 238.163 41.04L245.885 40.662C246.101 42.282 246.515 43.65 247.127 44.766C247.739 45.882 248.513 46.71 249.449 47.25C250.385 47.79 251.501 48.06 252.797 48.06C253.949 48.06 254.921 47.898 255.713 47.574C256.541 47.25 257.171 46.782 257.603 46.17C258.035 45.522 258.251 44.748 258.251 43.848C258.251 42.876 258.017 42.012 257.549 41.256C257.081 40.5 256.253 39.816 255.065 39.204C253.913 38.592 252.275 38.016 250.151 37.476C247.595 36.828 245.471 36.054 243.779 35.154C242.123 34.254 240.899 33.102 240.107 31.698C239.315 30.294 238.919 28.53 238.919 26.406C238.919 24.066 239.423 22.032 240.431 20.304C241.475 18.54 242.969 17.19 244.913 16.254C246.893 15.282 249.287 14.796 252.095 14.796C254.831 14.796 257.171 15.3 259.115 16.308C261.059 17.316 262.571 18.774 263.651 20.682C264.767 22.59 265.415 24.912 265.595 27.648L257.819 28.026C257.639 26.694 257.297 25.542 256.793 24.57C256.289 23.598 255.605 22.86 254.741 22.356C253.913 21.852 252.923 21.6 251.771 21.6C250.223 21.6 248.981 21.996 248.045 22.788C247.145 23.58 246.695 24.66 246.695 26.028C246.695 26.928 246.911 27.702 247.343 28.35C247.811 28.998 248.603 29.574 249.719 30.078C250.871 30.582 252.437 31.104 254.417 31.644C257.333 32.328 259.637 33.228 261.329 34.344C263.021 35.46 264.227 36.774 264.947 38.286C265.667 39.798 266.027 41.562 266.027 43.578C266.027 45.882 265.487 47.88 264.407 49.572C263.327 51.228 261.761 52.524 259.709 53.46C257.693 54.396 255.263 54.864 252.419 54.864ZM280.639 54V22.572H270.433V15.66H298.513V22.572H288.307V54H280.639ZM301.678 54L312.154 15.66H321.55L332.026 54H324.304L316.852 24.948L309.4 54H301.678ZM308.752 45.846L310.696 39.15H323.008L324.952 45.846H308.752ZM345.397 54V22.572H335.191V15.66H363.271V22.572H353.065V54H345.397ZM381.61 54.864C377.398 54.864 374.122 53.658 371.782 51.246C369.478 48.798 368.326 45.288 368.326 40.716V15.606H375.994V41.364C375.994 43.524 376.48 45.18 377.452 46.332C378.424 47.484 379.81 48.06 381.61 48.06C383.41 48.06 384.796 47.484 385.768 46.332C386.74 45.18 387.226 43.524 387.226 41.364V15.606H394.894V40.716C394.894 45.288 393.724 48.798 391.384 51.246C389.08 53.658 385.822 54.864 381.61 54.864ZM414.313 54.864C411.397 54.864 408.913 54.306 406.861 53.19C404.809 52.074 403.207 50.49 402.055 48.438C400.939 46.386 400.273 43.92 400.057 41.04L407.779 40.662C407.995 42.282 408.409 43.65 409.021 44.766C409.633 45.882 410.407 46.71 411.343 47.25C412.279 47.79 413.395 48.06 414.691 48.06C415.843 48.06 416.815 47.898 417.607 47.574C418.435 47.25 419.065 46.782 419.497 46.17C419.929 45.522 420.145 44.748 420.145 43.848C420.145 42.876 419.911 42.012 419.443 41.256C418.975 40.5 418.147 39.816 416.959 39.204C415.807 38.592 414.169 38.016 412.045 37.476C409.489 36.828 407.365 36.054 405.673 35.154C404.017 34.254 402.793 33.102 402.001 31.698C401.209 30.294 400.813 28.53 400.813 26.406C400.813 24.066 401.317 22.032 402.325 20.304C403.369 18.54 404.863 17.19 406.807 16.254C408.787 15.282 411.181 14.796 413.989 14.796C416.725 14.796 419.065 15.3 421.009 16.308C422.953 17.316 424.465 18.774 425.545 20.682C426.661 22.59 427.309 24.912 427.489 27.648L419.713 28.026C419.533 26.694 419.191 25.542 418.687 24.57C418.183 23.598 417.499 22.86 416.635 22.356C415.807 21.852 414.817 21.6 413.665 21.6C412.117 21.6 410.875 21.996 409.939 22.788C409.039 23.58 408.589 24.66 408.589 26.028C408.589 26.928 408.805 27.702 409.237 28.35C409.705 28.998 410.497 29.574 411.613 30.078C412.765 30.582 414.331 31.104 416.311 31.644C419.227 32.328 421.531 33.228 423.223 34.344C424.915 35.46 426.121 36.774 426.841 38.286C427.561 39.798 427.921 41.562 427.921 43.578C427.921 45.882 427.381 47.88 426.301 49.572C425.221 51.228 423.655 52.524 421.603 53.46C419.587 54.396 417.157 54.864 414.313 54.864Z" fill="white"/>
<rect y="8" width="55" height="55" rx="9" fill="white"/>
</svg>
