<svg width="282" height="66" viewBox="0 0 282 66" fill="none" xmlns="http://www.w3.org/2000/svg">
<rect y="6" width="55" height="55" rx="9" fill="white"/>
<path d="M27.686 52.432C24.806 52.432 22.052 52 19.424 51.136C16.796 50.236 14.726 49.084 13.214 47.68L15.212 43.468C16.652 44.728 18.488 45.772 20.72 46.6C22.952 47.428 25.274 47.842 27.686 47.842C29.882 47.842 31.664 47.59 33.032 47.086C34.4 46.582 35.408 45.898 36.056 45.034C36.704 44.134 37.028 43.126 37.028 42.01C37.028 40.714 36.596 39.67 35.732 38.878C34.904 38.086 33.806 37.456 32.438 36.988C31.106 36.484 29.63 36.052 28.01 35.692C26.39 35.332 24.752 34.918 23.096 34.45C21.476 33.946 19.982 33.316 18.614 32.56C17.282 31.804 16.202 30.796 15.374 29.536C14.546 28.24 14.132 26.584 14.132 24.568C14.132 22.624 14.636 20.842 15.644 19.222C16.688 17.566 18.272 16.252 20.396 15.28C22.556 14.272 25.292 13.768 28.604 13.768C30.8 13.768 32.978 14.056 35.138 14.632C37.298 15.208 39.17 16.036 40.754 17.116L38.972 21.436C37.352 20.356 35.642 19.582 33.842 19.114C32.042 18.61 30.296 18.358 28.604 18.358C26.48 18.358 24.734 18.628 23.366 19.168C21.998 19.708 20.99 20.428 20.342 21.328C19.73 22.228 19.424 23.236 19.424 24.352C19.424 25.684 19.838 26.746 20.666 27.538C21.53 28.33 22.628 28.96 23.96 29.428C25.328 29.896 26.822 30.328 28.442 30.724C30.062 31.084 31.682 31.498 33.302 31.966C34.958 32.434 36.452 33.046 37.784 33.802C39.152 34.558 40.25 35.566 41.078 36.826C41.906 38.086 42.32 39.706 42.32 41.686C42.32 43.594 41.798 45.376 40.754 47.032C39.71 48.652 38.09 49.966 35.894 50.974C33.734 51.946 30.998 52.432 27.686 52.432Z" fill="black"/>
<path d="M90.794 52.54C87.842 52.54 85.016 52.126 82.316 51.298C79.616 50.434 77.474 49.336 75.89 48.004L78.32 42.55C79.832 43.738 81.704 44.728 83.936 45.52C86.168 46.312 88.454 46.708 90.794 46.708C92.774 46.708 94.376 46.492 95.6 46.06C96.824 45.628 97.724 45.052 98.3 44.332C98.876 43.576 99.164 42.73 99.164 41.794C99.164 40.642 98.75 39.724 97.922 39.04C97.094 38.32 96.014 37.762 94.682 37.366C93.386 36.934 91.928 36.538 90.308 36.178C88.724 35.818 87.122 35.404 85.502 34.936C83.918 34.432 82.46 33.802 81.128 33.046C79.832 32.254 78.77 31.21 77.942 29.914C77.114 28.618 76.7 26.962 76.7 24.946C76.7 22.894 77.24 21.022 78.32 19.33C79.436 17.602 81.11 16.234 83.342 15.226C85.61 14.182 88.472 13.66 91.928 13.66C94.196 13.66 96.446 13.948 98.678 14.524C100.91 15.1 102.854 15.928 104.51 17.008L102.296 22.462C100.604 21.454 98.858 20.716 97.058 20.248C95.258 19.744 93.53 19.492 91.874 19.492C89.93 19.492 88.346 19.726 87.122 20.194C85.934 20.662 85.052 21.274 84.476 22.03C83.936 22.786 83.666 23.65 83.666 24.622C83.666 25.774 84.062 26.71 84.854 27.43C85.682 28.114 86.744 28.654 88.04 29.05C89.372 29.446 90.848 29.842 92.468 30.238C94.088 30.598 95.69 31.012 97.274 31.48C98.894 31.948 100.352 32.56 101.648 33.316C102.98 34.072 104.042 35.098 104.834 36.394C105.662 37.69 106.076 39.328 106.076 41.308C106.076 43.324 105.518 45.196 104.402 46.924C103.322 48.616 101.648 49.984 99.38 51.028C97.112 52.036 94.25 52.54 90.794 52.54ZM114.238 62.854C112.834 62.854 111.43 62.62 110.026 62.152C108.622 61.684 107.452 61.036 106.516 60.208L109.216 55.24C109.9 55.852 110.674 56.338 111.538 56.698C112.402 57.058 113.284 57.238 114.184 57.238C115.408 57.238 116.398 56.932 117.154 56.32C117.91 55.708 118.612 54.682 119.26 53.242L120.934 49.462L121.474 48.652L132.382 23.164H138.862L125.362 54.322C124.462 56.482 123.454 58.192 122.338 59.452C121.258 60.712 120.034 61.594 118.666 62.098C117.334 62.602 115.858 62.854 114.238 62.854ZM120.178 53.026L107.164 23.164H114.184L124.768 48.058L120.178 53.026ZM159.442 22.84C161.746 22.84 163.798 23.29 165.598 24.19C167.434 25.09 168.874 26.476 169.918 28.348C170.962 30.184 171.484 32.56 171.484 35.476V52H164.734V36.34C164.734 33.784 164.122 31.876 162.898 30.616C161.71 29.356 160.036 28.726 157.876 28.726C156.292 28.726 154.888 29.05 153.664 29.698C152.44 30.346 151.486 31.318 150.802 32.614C150.154 33.874 149.83 35.476 149.83 37.42V52H143.08V23.164H149.506V30.94L148.372 28.564C149.38 26.728 150.838 25.324 152.746 24.352C154.69 23.344 156.922 22.84 159.442 22.84ZM193.33 52.378C190.306 52.378 187.606 51.748 185.23 50.488C182.89 49.192 181.054 47.428 179.722 45.196C178.39 42.964 177.724 40.426 177.724 37.582C177.724 34.702 178.39 32.164 179.722 29.968C181.054 27.736 182.89 25.99 185.23 24.73C187.606 23.47 190.306 22.84 193.33 22.84C196.138 22.84 198.604 23.416 200.728 24.568C202.888 25.684 204.526 27.34 205.642 29.536L200.458 32.56C199.594 31.192 198.532 30.184 197.272 29.536C196.048 28.888 194.716 28.564 193.276 28.564C191.62 28.564 190.126 28.924 188.794 29.644C187.462 30.364 186.418 31.408 185.662 32.776C184.906 34.108 184.528 35.71 184.528 37.582C184.528 39.454 184.906 41.074 185.662 42.442C186.418 43.774 187.462 44.8 188.794 45.52C190.126 46.24 191.62 46.6 193.276 46.6C194.716 46.6 196.048 46.276 197.272 45.628C198.532 44.98 199.594 43.972 200.458 42.604L205.642 45.628C204.526 47.788 202.888 49.462 200.728 50.65C198.604 51.802 196.138 52.378 193.33 52.378ZM243.303 52.54C238.119 52.54 234.051 51.082 231.099 48.166C228.183 45.25 226.725 41.038 226.725 35.53V14.2H233.745V35.26C233.745 39.148 234.573 41.974 236.229 43.738C237.921 45.502 240.297 46.384 243.357 46.384C246.417 46.384 248.775 45.502 250.431 43.738C252.087 41.974 252.915 39.148 252.915 35.26V14.2H259.827V35.53C259.827 41.038 258.351 45.25 255.399 48.166C252.483 51.082 248.451 52.54 243.303 52.54ZM269.658 52V14.2H276.678V52H269.658Z" fill="white"/>
</svg>
